<?xml version="1.0" encoding="UTF-8" standalone="no"?>
<!DOCTYPE svg PUBLIC "-//W3C//DTD SVG 1.0//EN" "http://www.w3.org/TR/2001/PR-SVG-20010719/DTD/svg10.dtd">
<svg width="31cm" height="16cm" viewBox="198 99 603 302" xmlns="http://www.w3.org/2000/svg" xmlns:xlink="http://www.w3.org/1999/xlink">
  <g id="Hintergrund">
    <rect style="fill: none; stroke-opacity: 1; stroke-width: 2; stroke: #000000" x="200" y="100" width="600" height="300" rx="0" ry="0"/>
    <line style="fill: none; stroke-opacity: 1; stroke-width: 2; stroke: #000000" x1="400" y1="100" x2="400" y2="400"/>
    <g>
      <line style="fill: none; stroke-opacity: 1; stroke-width: 2; stroke: #000000" x1="200" y1="200" x2="406" y2="251"/>
      <path style="fill: #000000; fill-opacity: 1; stroke-opacity: 1; stroke-width: 2; stroke: #000000" fill-rule="evenodd" d="M 406 251 C 405.399,253.427 402.372,255.253 399.945,254.652 C 397.518,254.051 395.692,251.024 396.293,248.597 C 396.894,246.17 399.921,244.344 402.348,244.945 C 404.775,245.546 406.601,248.573 406,251z"/>
    </g>
    <line style="fill: none; stroke-opacity: 1; stroke-width: 2; stroke: #000000" x1="200" y1="300" x2="400" y2="250"/>
    <line style="fill: none; stroke-opacity: 1; stroke-width: 2; stroke: #000000" x1="500" y1="250" x2="800" y2="280"/>
    <line style="fill: none; stroke-opacity: 1; stroke-width: 2; stroke: #000000" x1="800" y1="220" x2="500" y2="250"/>
    <g>
      <line style="fill: none; stroke-opacity: 1; stroke-width: 2; stroke: #000000" x1="400" y1="250" x2="500" y2="250"/>
      <path style="fill: #000000; fill-opacity: 1; stroke-opacity: 1; stroke-width: 2; stroke: #000000" fill-rule="evenodd" d="M 500 250 C 500,252.5 497.5,255 495,255 C 492.5,255 490,252.5 490,250 C 490,247.5 492.5,245 495,245 C 497.5,245 500,247.5 500,250z"/>
    </g>
  </g>
</svg>
