<?xml version="1.0" encoding="UTF-8"?>
<svg xmlns="http://www.w3.org/2000/svg" xmlns:xlink="http://www.w3.org/1999/xlink" width="1003pt" height="506pt" viewBox="0 0 1003 506" version="1.1">
<g id="surface88375">
<rect x="0" y="0" width="1003" height="506" style="fill:rgb(100%,100%,100%);fill-opacity:1;stroke:none;"/>
<path style="fill:none;stroke-width:0.1;stroke-linecap:butt;stroke-linejoin:miter;stroke:rgb(100%,0%,0%);stroke-opacity:1;stroke-miterlimit:10;" d="M 21.65 15.95 C 21.65 16.364258 21.336523 16.7 20.95 16.7 C 20.563477 16.7 20.25 16.364258 20.25 15.95 C 20.25 15.535742 20.563477 15.2 20.95 15.2 C 21.336523 15.2 21.65 15.535742 21.65 15.95 " transform="matrix(20,0,0,20,-18,-17)"/>
<path style="fill:none;stroke-width:0.1;stroke-linecap:butt;stroke-linejoin:miter;stroke:rgb(0%,0%,0%);stroke-opacity:1;stroke-miterlimit:10;" d="M 11 1 L 16 1 L 16 6 L 11 6 Z M 11 1 " transform="matrix(20,0,0,20,-18,-17)"/>
<path style="fill:none;stroke-width:0.1;stroke-linecap:butt;stroke-linejoin:miter;stroke:rgb(0%,0%,0%);stroke-opacity:1;stroke-miterlimit:10;" d="M 11 6 L 16 6 L 16 11 L 11 11 Z M 11 6 " transform="matrix(20,0,0,20,-18,-17)"/>
<path style="fill:none;stroke-width:0.1;stroke-linecap:butt;stroke-linejoin:miter;stroke:rgb(0%,0%,0%);stroke-opacity:1;stroke-miterlimit:10;" d="M 1 11 L 6 11 L 6 16 L 1 16 Z M 1 11 " transform="matrix(20,0,0,20,-18,-17)"/>
<path style="fill:none;stroke-width:0.1;stroke-linecap:butt;stroke-linejoin:miter;stroke:rgb(0%,0%,0%);stroke-opacity:1;stroke-miterlimit:10;" d="M 6 11 L 11 11 L 11 16 L 6 16 Z M 6 11 " transform="matrix(20,0,0,20,-18,-17)"/>
<path style="fill:none;stroke-width:0.1;stroke-linecap:butt;stroke-linejoin:miter;stroke:rgb(0%,0%,0%);stroke-opacity:1;stroke-miterlimit:10;" d="M 11 11 L 16 11 L 16 16 L 11 16 Z M 11 11 " transform="matrix(20,0,0,20,-18,-17)"/>
<path style="fill:none;stroke-width:0.1;stroke-linecap:butt;stroke-linejoin:miter;stroke:rgb(0%,0%,0%);stroke-opacity:1;stroke-miterlimit:10;" d="M 1 16 L 6 16 L 6 21 L 1 21 Z M 1 16 " transform="matrix(20,0,0,20,-18,-17)"/>
<path style="fill:none;stroke-width:0.1;stroke-linecap:butt;stroke-linejoin:miter;stroke:rgb(0%,0%,0%);stroke-opacity:1;stroke-miterlimit:10;" d="M 6 16 L 11 16 L 11 21 L 6 21 Z M 6 16 " transform="matrix(20,0,0,20,-18,-17)"/>
<path style="fill:none;stroke-width:0.1;stroke-linecap:butt;stroke-linejoin:miter;stroke:rgb(0%,0%,0%);stroke-opacity:1;stroke-miterlimit:10;" d="M 11 16 L 16 16 L 16 21 L 11 21 Z M 11 16 " transform="matrix(20,0,0,20,-18,-17)"/>
<path style="fill:none;stroke-width:0.1;stroke-linecap:butt;stroke-linejoin:miter;stroke:rgb(0%,0%,0%);stroke-opacity:1;stroke-miterlimit:10;" d="M 1 21 L 6 21 L 6 26 L 1 26 Z M 1 21 " transform="matrix(20,0,0,20,-18,-17)"/>
<path style="fill:none;stroke-width:0.1;stroke-linecap:butt;stroke-linejoin:miter;stroke:rgb(0%,0%,0%);stroke-opacity:1;stroke-miterlimit:10;" d="M 6 21 L 11 21 L 11 26 L 6 26 Z M 6 21 " transform="matrix(20,0,0,20,-18,-17)"/>
<path style="fill:none;stroke-width:0.1;stroke-linecap:butt;stroke-linejoin:miter;stroke:rgb(0%,0%,0%);stroke-opacity:1;stroke-miterlimit:10;" d="M 11 21 L 16 21 L 16 26 L 11 26 Z M 11 21 " transform="matrix(20,0,0,20,-18,-17)"/>
<path style="fill:none;stroke-width:0.1;stroke-linecap:butt;stroke-linejoin:miter;stroke:rgb(0%,0%,0%);stroke-opacity:1;stroke-miterlimit:10;" d="M 16 1 L 21 1 L 21 6 L 16 6 Z M 16 1 " transform="matrix(20,0,0,20,-18,-17)"/>
<path style="fill:none;stroke-width:0.1;stroke-linecap:butt;stroke-linejoin:miter;stroke:rgb(0%,0%,0%);stroke-opacity:1;stroke-miterlimit:10;" d="M 21 1 L 26 1 L 26 6 L 21 6 Z M 21 1 " transform="matrix(20,0,0,20,-18,-17)"/>
<path style="fill:none;stroke-width:0.1;stroke-linecap:butt;stroke-linejoin:miter;stroke:rgb(0%,0%,0%);stroke-opacity:1;stroke-miterlimit:10;" d="M 26 1 L 31 1 L 31 6 L 26 6 Z M 26 1 " transform="matrix(20,0,0,20,-18,-17)"/>
<path style="fill:none;stroke-width:0.1;stroke-linecap:butt;stroke-linejoin:miter;stroke:rgb(0%,0%,0%);stroke-opacity:1;stroke-miterlimit:10;" d="M 16 6 L 21 6 L 21 11 L 16 11 Z M 16 6 " transform="matrix(20,0,0,20,-18,-17)"/>
<path style="fill:none;stroke-width:0.1;stroke-linecap:butt;stroke-linejoin:miter;stroke:rgb(0%,0%,0%);stroke-opacity:1;stroke-miterlimit:10;" d="M 21 6 L 26 6 L 26 11 L 21 11 Z M 21 6 " transform="matrix(20,0,0,20,-18,-17)"/>
<path style="fill:none;stroke-width:0.1;stroke-linecap:butt;stroke-linejoin:miter;stroke:rgb(0%,0%,0%);stroke-opacity:1;stroke-miterlimit:10;" d="M 26 6 L 31 6 L 31 11 L 26 11 Z M 26 6 " transform="matrix(20,0,0,20,-18,-17)"/>
<path style="fill:none;stroke-width:0.1;stroke-linecap:butt;stroke-linejoin:miter;stroke:rgb(0%,0%,0%);stroke-opacity:1;stroke-miterlimit:10;" d="M 16 11 L 21 11 L 21 16 L 16 16 Z M 16 11 " transform="matrix(20,0,0,20,-18,-17)"/>
<path style="fill:none;stroke-width:0.1;stroke-linecap:butt;stroke-linejoin:miter;stroke:rgb(0%,0%,0%);stroke-opacity:1;stroke-miterlimit:10;" d="M 21 11 L 26 11 L 26 16 L 21 16 Z M 21 11 " transform="matrix(20,0,0,20,-18,-17)"/>
<path style="fill:none;stroke-width:0.1;stroke-linecap:butt;stroke-linejoin:miter;stroke:rgb(0%,0%,0%);stroke-opacity:1;stroke-miterlimit:10;" d="M 26 11 L 31 11 L 31 16 L 26 16 Z M 26 11 " transform="matrix(20,0,0,20,-18,-17)"/>
<path style="fill:none;stroke-width:0.1;stroke-linecap:butt;stroke-linejoin:miter;stroke:rgb(0%,0%,0%);stroke-opacity:1;stroke-miterlimit:10;" d="M 16 16 L 21 16 L 21 21 L 16 21 Z M 16 16 " transform="matrix(20,0,0,20,-18,-17)"/>
<path style="fill:none;stroke-width:0.1;stroke-linecap:butt;stroke-linejoin:miter;stroke:rgb(0%,0%,0%);stroke-opacity:1;stroke-miterlimit:10;" d="M 21 16 L 26 16 L 26 21 L 21 21 Z M 21 16 " transform="matrix(20,0,0,20,-18,-17)"/>
<path style="fill:none;stroke-width:0.1;stroke-linecap:butt;stroke-linejoin:miter;stroke:rgb(0%,0%,0%);stroke-opacity:1;stroke-miterlimit:10;" d="M 26 16 L 31 16 L 31 21 L 26 21 Z M 26 16 " transform="matrix(20,0,0,20,-18,-17)"/>
<path style="fill:none;stroke-width:0.1;stroke-linecap:butt;stroke-linejoin:miter;stroke:rgb(0%,0%,0%);stroke-opacity:1;stroke-miterlimit:10;" d="M 16 21 L 21 21 L 21 26 L 16 26 Z M 16 21 " transform="matrix(20,0,0,20,-18,-17)"/>
<path style="fill:none;stroke-width:0.1;stroke-linecap:butt;stroke-linejoin:miter;stroke:rgb(0%,0%,0%);stroke-opacity:1;stroke-miterlimit:10;" d="M 21 21 L 26 21 L 26 26 L 21 26 Z M 21 21 " transform="matrix(20,0,0,20,-18,-17)"/>
<path style="fill:none;stroke-width:0.1;stroke-linecap:butt;stroke-linejoin:miter;stroke:rgb(0%,0%,0%);stroke-opacity:1;stroke-miterlimit:10;" d="M 26 21 L 31 21 L 31 26 L 26 26 Z M 26 21 " transform="matrix(20,0,0,20,-18,-17)"/>
<path style="fill:none;stroke-width:0.1;stroke-linecap:butt;stroke-linejoin:miter;stroke:rgb(0%,0%,0%);stroke-opacity:1;stroke-miterlimit:10;" d="M 31 1 L 36 1 L 36 6 L 31 6 Z M 31 1 " transform="matrix(20,0,0,20,-18,-17)"/>
<path style="fill:none;stroke-width:0.1;stroke-linecap:butt;stroke-linejoin:miter;stroke:rgb(0%,0%,0%);stroke-opacity:1;stroke-miterlimit:10;" d="M 36 1 L 41 1 L 41 6 L 36 6 Z M 36 1 " transform="matrix(20,0,0,20,-18,-17)"/>
<path style="fill:none;stroke-width:0.1;stroke-linecap:butt;stroke-linejoin:miter;stroke:rgb(0%,0%,0%);stroke-opacity:1;stroke-miterlimit:10;" d="M 41 1 L 46 1 L 46 6 L 41 6 Z M 41 1 " transform="matrix(20,0,0,20,-18,-17)"/>
<path style="fill:none;stroke-width:0.1;stroke-linecap:butt;stroke-linejoin:miter;stroke:rgb(0%,0%,0%);stroke-opacity:1;stroke-miterlimit:10;" d="M 31 6 L 36 6 L 36 11 L 31 11 Z M 31 6 " transform="matrix(20,0,0,20,-18,-17)"/>
<path style="fill:none;stroke-width:0.1;stroke-linecap:butt;stroke-linejoin:miter;stroke:rgb(0%,0%,0%);stroke-opacity:1;stroke-miterlimit:10;" d="M 36 6 L 41 6 L 41 11 L 36 11 Z M 36 6 " transform="matrix(20,0,0,20,-18,-17)"/>
<path style="fill:none;stroke-width:0.1;stroke-linecap:butt;stroke-linejoin:miter;stroke:rgb(0%,0%,0%);stroke-opacity:1;stroke-miterlimit:10;" d="M 41 6 L 46 6 L 46 11 L 41 11 Z M 41 6 " transform="matrix(20,0,0,20,-18,-17)"/>
<path style="fill:none;stroke-width:0.1;stroke-linecap:butt;stroke-linejoin:miter;stroke:rgb(0%,0%,0%);stroke-opacity:1;stroke-miterlimit:10;" d="M 31 11 L 36 11 L 36 16 L 31 16 Z M 31 11 " transform="matrix(20,0,0,20,-18,-17)"/>
<path style="fill:none;stroke-width:0.1;stroke-linecap:butt;stroke-linejoin:miter;stroke:rgb(0%,0%,0%);stroke-opacity:1;stroke-miterlimit:10;" d="M 36 11 L 41 11 L 41 16 L 36 16 Z M 36 11 " transform="matrix(20,0,0,20,-18,-17)"/>
<path style="fill:none;stroke-width:0.1;stroke-linecap:butt;stroke-linejoin:miter;stroke:rgb(0%,0%,0%);stroke-opacity:1;stroke-miterlimit:10;" d="M 41 11 L 46 11 L 46 16 L 41 16 Z M 41 11 " transform="matrix(20,0,0,20,-18,-17)"/>
<path style="fill:none;stroke-width:0.1;stroke-linecap:butt;stroke-linejoin:miter;stroke:rgb(0%,0%,0%);stroke-opacity:1;stroke-miterlimit:10;" d="M 31 16 L 36 16 L 36 21 L 31 21 Z M 31 16 " transform="matrix(20,0,0,20,-18,-17)"/>
<path style="fill:none;stroke-width:0.1;stroke-linecap:butt;stroke-linejoin:miter;stroke:rgb(0%,0%,0%);stroke-opacity:1;stroke-miterlimit:10;" d="M 36 16 L 41 16 L 41 21 L 36 21 Z M 36 16 " transform="matrix(20,0,0,20,-18,-17)"/>
<path style="fill:none;stroke-width:0.1;stroke-linecap:butt;stroke-linejoin:miter;stroke:rgb(0%,0%,0%);stroke-opacity:1;stroke-miterlimit:10;" d="M 41 16 L 46 16 L 46 21 L 41 21 Z M 41 16 " transform="matrix(20,0,0,20,-18,-17)"/>
<path style="fill:none;stroke-width:0.1;stroke-linecap:butt;stroke-linejoin:miter;stroke:rgb(0%,0%,0%);stroke-opacity:1;stroke-miterlimit:10;" d="M 31 21 L 36 21 L 36 26 L 31 26 Z M 31 21 " transform="matrix(20,0,0,20,-18,-17)"/>
<path style="fill:none;stroke-width:0.1;stroke-linecap:butt;stroke-linejoin:miter;stroke:rgb(0%,0%,0%);stroke-opacity:1;stroke-miterlimit:10;" d="M 36 21 L 41 21 L 41 26 L 36 26 Z M 36 21 " transform="matrix(20,0,0,20,-18,-17)"/>
<path style="fill:none;stroke-width:0.1;stroke-linecap:butt;stroke-linejoin:miter;stroke:rgb(0%,0%,0%);stroke-opacity:1;stroke-miterlimit:10;" d="M 41 21 L 46 21 L 46 26 L 41 26 Z M 41 21 " transform="matrix(20,0,0,20,-18,-17)"/>
<path style="fill:none;stroke-width:0.1;stroke-linecap:butt;stroke-linejoin:miter;stroke:rgb(0%,0%,0%);stroke-opacity:1;stroke-miterlimit:10;" d="M 46 1 L 51 1 L 51 6 L 46 6 Z M 46 1 " transform="matrix(20,0,0,20,-18,-17)"/>
<path style="fill:none;stroke-width:0.1;stroke-linecap:butt;stroke-linejoin:miter;stroke:rgb(0%,0%,0%);stroke-opacity:1;stroke-miterlimit:10;" d="M 46 6 L 51 6 L 51 11 L 46 11 Z M 46 6 " transform="matrix(20,0,0,20,-18,-17)"/>
<path style="fill:none;stroke-width:0.1;stroke-linecap:butt;stroke-linejoin:miter;stroke:rgb(0%,0%,0%);stroke-opacity:1;stroke-miterlimit:10;" d="M 46 11 L 51 11 L 51 16 L 46 16 Z M 46 11 " transform="matrix(20,0,0,20,-18,-17)"/>
<path style="fill:none;stroke-width:0.1;stroke-linecap:butt;stroke-linejoin:miter;stroke:rgb(0%,0%,0%);stroke-opacity:1;stroke-miterlimit:10;" d="M 46 16 L 51 16 L 51 21 L 46 21 Z M 46 16 " transform="matrix(20,0,0,20,-18,-17)"/>
<path style="fill:none;stroke-width:0.1;stroke-linecap:butt;stroke-linejoin:miter;stroke:rgb(0%,0%,0%);stroke-opacity:1;stroke-miterlimit:10;" d="M 46 21 L 51 21 L 51 26 L 46 26 Z M 46 21 " transform="matrix(20,0,0,20,-18,-17)"/>
<path style="fill:none;stroke-width:0.1;stroke-linecap:butt;stroke-linejoin:miter;stroke:rgb(0%,0%,0%);stroke-opacity:1;stroke-miterlimit:10;" d="M 6 6 L 11 6 L 11 11 L 6 11 Z M 6 6 " transform="matrix(20,0,0,20,-18,-17)"/>
<path style="fill:none;stroke-width:0.1;stroke-linecap:butt;stroke-linejoin:miter;stroke:rgb(0%,0%,0%);stroke-opacity:1;stroke-miterlimit:10;" d="M 1 1 L 6 1 L 6 6 L 1 6 Z M 1 1 " transform="matrix(20,0,0,20,-18,-17)"/>
<path style="fill:none;stroke-width:0.1;stroke-linecap:butt;stroke-linejoin:miter;stroke:rgb(0%,0%,0%);stroke-opacity:1;stroke-miterlimit:10;" d="M 6 1 L 11 1 L 11 6 L 6 6 Z M 6 1 " transform="matrix(20,0,0,20,-18,-17)"/>
<path style="fill:none;stroke-width:0.1;stroke-linecap:butt;stroke-linejoin:miter;stroke:rgb(0%,0%,0%);stroke-opacity:1;stroke-miterlimit:10;" d="M 1 6 L 6 6 L 6 11 L 1 11 Z M 1 6 " transform="matrix(20,0,0,20,-18,-17)"/>
<path style="fill:none;stroke-width:0.1;stroke-linecap:butt;stroke-linejoin:miter;stroke:rgb(0%,0%,100%);stroke-opacity:1;stroke-miterlimit:10;" d="M 6 11 L 11 21 " transform="matrix(20,0,0,20,-18,-17)"/>
<path style="fill:none;stroke-width:0.1;stroke-linecap:butt;stroke-linejoin:miter;stroke:rgb(0%,0%,100%);stroke-opacity:1;stroke-miterlimit:10;" d="M 16 21 L 21 16 " transform="matrix(20,0,0,20,-18,-17)"/>
<path style="fill-rule:evenodd;fill:rgb(0%,0%,100%);fill-opacity:1;stroke-width:0.1;stroke-linecap:butt;stroke-linejoin:miter;stroke:rgb(0%,0%,100%);stroke-opacity:1;stroke-miterlimit:10;" d="M 16 21 C 15.911523 20.911523 15.911523 20.734766 16 20.646484 C 16.088477 20.558008 16.265234 20.558008 16.353516 20.646484 C 16.441992 20.734766 16.441992 20.911523 16.353516 21 C 16.265234 21.088477 16.088477 21.088477 16 21 Z M 16 21 " transform="matrix(20,0,0,20,-18,-17)"/>
<path style="fill:none;stroke-width:0.1;stroke-linecap:butt;stroke-linejoin:miter;stroke:rgb(0%,0%,100%);stroke-opacity:1;stroke-miterlimit:10;" d="M 21 16 L 26 21 " transform="matrix(20,0,0,20,-18,-17)"/>
<path style="fill:none;stroke-width:0.1;stroke-linecap:butt;stroke-linejoin:miter;stroke:rgb(0%,0%,100%);stroke-opacity:1;stroke-miterlimit:10;" d="M 31 11 L 21 16 " transform="matrix(20,0,0,20,-18,-17)"/>
<path style="fill:none;stroke-width:0.1;stroke-linecap:butt;stroke-linejoin:miter;stroke:rgb(0%,0%,100%);stroke-opacity:1;stroke-miterlimit:10;" d="M 36 6 L 46 11 " transform="matrix(20,0,0,20,-18,-17)"/>
<path style="fill:none;stroke-width:0.1;stroke-linecap:butt;stroke-linejoin:miter;stroke:rgb(0%,0%,100%);stroke-opacity:1;stroke-miterlimit:10;" d="M 46 6 L 36 11 " transform="matrix(20,0,0,20,-18,-17)"/>
<path style="fill:none;stroke-width:0.2;stroke-linecap:butt;stroke-linejoin:miter;stroke:rgb(100%,0%,0%);stroke-opacity:1;stroke-miterlimit:10;" d="M 21 26 L 21 1 " transform="matrix(20,0,0,20,-18,-17)"/>
<path style="fill:none;stroke-width:0.1;stroke-linecap:butt;stroke-linejoin:miter;stroke:rgb(0%,0%,100%);stroke-opacity:1;stroke-miterlimit:10;" d="M 6 6 L 21.2 16.15 " transform="matrix(20,0,0,20,-18,-17)"/>
<path style="fill-rule:evenodd;fill:rgb(0%,0%,100%);fill-opacity:1;stroke-width:0.1;stroke-linecap:butt;stroke-linejoin:miter;stroke:rgb(0%,0%,100%);stroke-opacity:1;stroke-miterlimit:10;" d="M 6 6 C 6.069336 5.896094 6.242773 5.861523 6.34668 5.930859 C 6.450781 6.000391 6.485156 6.173633 6.41582 6.277734 C 6.346484 6.381641 6.173047 6.416211 6.069141 6.34668 C 5.965039 6.277344 5.930664 6.103906 6 6 Z M 6 6 " transform="matrix(20,0,0,20,-18,-17)"/>
<path style="fill-rule:evenodd;fill:rgb(0%,0%,100%);fill-opacity:1;stroke-width:0.1;stroke-linecap:butt;stroke-linejoin:miter;stroke:rgb(0%,0%,100%);stroke-opacity:1;stroke-miterlimit:10;" d="M 21.2 16.15 C 21.130664 16.253906 20.957227 16.288477 20.85332 16.219141 C 20.749219 16.149609 20.714844 15.976367 20.78418 15.872266 C 20.853516 15.768359 21.026953 15.733789 21.130859 15.80332 C 21.234961 15.872656 21.269336 16.046094 21.2 16.15 Z M 21.2 16.15 " transform="matrix(20,0,0,20,-18,-17)"/>
</g>
</svg>
