<?xml version="1.0" encoding="UTF-8"?>
<svg xmlns="http://www.w3.org/2000/svg" xmlns:xlink="http://www.w3.org/1999/xlink" width="1003pt" height="506pt" viewBox="0 0 1003 506" version="1.1">
<g id="surface65184">
<rect x="0" y="0" width="1003" height="506" style="fill:rgb(100%,100%,100%);fill-opacity:1;stroke:none;"/>
<path style="fill:none;stroke-width:0.1;stroke-linecap:butt;stroke-linejoin:miter;stroke:rgb(0%,0%,0%);stroke-opacity:1;stroke-miterlimit:10;" d="M 11 1 L 16 1 L 16 6 L 11 6 Z M 11 1 " transform="matrix(20,0,0,20,-18,-17)"/>
<path style="fill:none;stroke-width:0.1;stroke-linecap:butt;stroke-linejoin:miter;stroke:rgb(0%,0%,0%);stroke-opacity:1;stroke-miterlimit:10;" d="M 11 6 L 16 6 L 16 11 L 11 11 Z M 11 6 " transform="matrix(20,0,0,20,-18,-17)"/>
<path style="fill:none;stroke-width:0.1;stroke-linecap:butt;stroke-linejoin:miter;stroke:rgb(0%,0%,0%);stroke-opacity:1;stroke-miterlimit:10;" d="M 1 11 L 6 11 L 6 16 L 1 16 Z M 1 11 " transform="matrix(20,0,0,20,-18,-17)"/>
<path style="fill:none;stroke-width:0.1;stroke-linecap:butt;stroke-linejoin:miter;stroke:rgb(0%,0%,0%);stroke-opacity:1;stroke-miterlimit:10;" d="M 6 11 L 11 11 L 11 16 L 6 16 Z M 6 11 " transform="matrix(20,0,0,20,-18,-17)"/>
<path style="fill:none;stroke-width:0.1;stroke-linecap:butt;stroke-linejoin:miter;stroke:rgb(0%,0%,0%);stroke-opacity:1;stroke-miterlimit:10;" d="M 11 11 L 16 11 L 16 16 L 11 16 Z M 11 11 " transform="matrix(20,0,0,20,-18,-17)"/>
<path style="fill:none;stroke-width:0.1;stroke-linecap:butt;stroke-linejoin:miter;stroke:rgb(0%,0%,0%);stroke-opacity:1;stroke-miterlimit:10;" d="M 1 16 L 6 16 L 6 21 L 1 21 Z M 1 16 " transform="matrix(20,0,0,20,-18,-17)"/>
<path style="fill:none;stroke-width:0.1;stroke-linecap:butt;stroke-linejoin:miter;stroke:rgb(0%,0%,0%);stroke-opacity:1;stroke-miterlimit:10;" d="M 6 16 L 11 16 L 11 21 L 6 21 Z M 6 16 " transform="matrix(20,0,0,20,-18,-17)"/>
<path style="fill:none;stroke-width:0.1;stroke-linecap:butt;stroke-linejoin:miter;stroke:rgb(0%,0%,0%);stroke-opacity:1;stroke-miterlimit:10;" d="M 11 16 L 16 16 L 16 21 L 11 21 Z M 11 16 " transform="matrix(20,0,0,20,-18,-17)"/>
<path style="fill:none;stroke-width:0.1;stroke-linecap:butt;stroke-linejoin:miter;stroke:rgb(0%,0%,0%);stroke-opacity:1;stroke-miterlimit:10;" d="M 1 21 L 6 21 L 6 26 L 1 26 Z M 1 21 " transform="matrix(20,0,0,20,-18,-17)"/>
<path style="fill:none;stroke-width:0.1;stroke-linecap:butt;stroke-linejoin:miter;stroke:rgb(0%,0%,0%);stroke-opacity:1;stroke-miterlimit:10;" d="M 6 21 L 11 21 L 11 26 L 6 26 Z M 6 21 " transform="matrix(20,0,0,20,-18,-17)"/>
<path style="fill:none;stroke-width:0.1;stroke-linecap:butt;stroke-linejoin:miter;stroke:rgb(0%,0%,0%);stroke-opacity:1;stroke-miterlimit:10;" d="M 11 21 L 16 21 L 16 26 L 11 26 Z M 11 21 " transform="matrix(20,0,0,20,-18,-17)"/>
<path style="fill:none;stroke-width:0.1;stroke-linecap:butt;stroke-linejoin:miter;stroke:rgb(0%,0%,0%);stroke-opacity:1;stroke-miterlimit:10;" d="M 16 1 L 21 1 L 21 6 L 16 6 Z M 16 1 " transform="matrix(20,0,0,20,-18,-17)"/>
<path style="fill:none;stroke-width:0.1;stroke-linecap:butt;stroke-linejoin:miter;stroke:rgb(0%,0%,0%);stroke-opacity:1;stroke-miterlimit:10;" d="M 21 1 L 26 1 L 26 6 L 21 6 Z M 21 1 " transform="matrix(20,0,0,20,-18,-17)"/>
<path style="fill:none;stroke-width:0.1;stroke-linecap:butt;stroke-linejoin:miter;stroke:rgb(0%,0%,0%);stroke-opacity:1;stroke-miterlimit:10;" d="M 26 1 L 31 1 L 31 6 L 26 6 Z M 26 1 " transform="matrix(20,0,0,20,-18,-17)"/>
<path style="fill:none;stroke-width:0.1;stroke-linecap:butt;stroke-linejoin:miter;stroke:rgb(0%,0%,0%);stroke-opacity:1;stroke-miterlimit:10;" d="M 16 6 L 21 6 L 21 11 L 16 11 Z M 16 6 " transform="matrix(20,0,0,20,-18,-17)"/>
<path style="fill:none;stroke-width:0.1;stroke-linecap:butt;stroke-linejoin:miter;stroke:rgb(0%,0%,0%);stroke-opacity:1;stroke-miterlimit:10;" d="M 21 6 L 26 6 L 26 11 L 21 11 Z M 21 6 " transform="matrix(20,0,0,20,-18,-17)"/>
<path style="fill:none;stroke-width:0.1;stroke-linecap:butt;stroke-linejoin:miter;stroke:rgb(0%,0%,0%);stroke-opacity:1;stroke-miterlimit:10;" d="M 26 6 L 31 6 L 31 11 L 26 11 Z M 26 6 " transform="matrix(20,0,0,20,-18,-17)"/>
<path style="fill:none;stroke-width:0.1;stroke-linecap:butt;stroke-linejoin:miter;stroke:rgb(0%,0%,0%);stroke-opacity:1;stroke-miterlimit:10;" d="M 16 11 L 21 11 L 21 16 L 16 16 Z M 16 11 " transform="matrix(20,0,0,20,-18,-17)"/>
<path style="fill:none;stroke-width:0.1;stroke-linecap:butt;stroke-linejoin:miter;stroke:rgb(0%,0%,0%);stroke-opacity:1;stroke-miterlimit:10;" d="M 21 11 L 26 11 L 26 16 L 21 16 Z M 21 11 " transform="matrix(20,0,0,20,-18,-17)"/>
<path style="fill:none;stroke-width:0.1;stroke-linecap:butt;stroke-linejoin:miter;stroke:rgb(0%,0%,0%);stroke-opacity:1;stroke-miterlimit:10;" d="M 26 11 L 31 11 L 31 16 L 26 16 Z M 26 11 " transform="matrix(20,0,0,20,-18,-17)"/>
<path style="fill:none;stroke-width:0.1;stroke-linecap:butt;stroke-linejoin:miter;stroke:rgb(0%,0%,0%);stroke-opacity:1;stroke-miterlimit:10;" d="M 16 16 L 21 16 L 21 21 L 16 21 Z M 16 16 " transform="matrix(20,0,0,20,-18,-17)"/>
<path style="fill:none;stroke-width:0.1;stroke-linecap:butt;stroke-linejoin:miter;stroke:rgb(0%,0%,0%);stroke-opacity:1;stroke-miterlimit:10;" d="M 21 16 L 26 16 L 26 21 L 21 21 Z M 21 16 " transform="matrix(20,0,0,20,-18,-17)"/>
<path style="fill:none;stroke-width:0.1;stroke-linecap:butt;stroke-linejoin:miter;stroke:rgb(0%,0%,0%);stroke-opacity:1;stroke-miterlimit:10;" d="M 26 16 L 31 16 L 31 21 L 26 21 Z M 26 16 " transform="matrix(20,0,0,20,-18,-17)"/>
<path style="fill:none;stroke-width:0.1;stroke-linecap:butt;stroke-linejoin:miter;stroke:rgb(0%,0%,0%);stroke-opacity:1;stroke-miterlimit:10;" d="M 16 21 L 21 21 L 21 26 L 16 26 Z M 16 21 " transform="matrix(20,0,0,20,-18,-17)"/>
<path style="fill:none;stroke-width:0.1;stroke-linecap:butt;stroke-linejoin:miter;stroke:rgb(0%,0%,0%);stroke-opacity:1;stroke-miterlimit:10;" d="M 21 21 L 26 21 L 26 26 L 21 26 Z M 21 21 " transform="matrix(20,0,0,20,-18,-17)"/>
<path style="fill:none;stroke-width:0.1;stroke-linecap:butt;stroke-linejoin:miter;stroke:rgb(0%,0%,0%);stroke-opacity:1;stroke-miterlimit:10;" d="M 26 21 L 31 21 L 31 26 L 26 26 Z M 26 21 " transform="matrix(20,0,0,20,-18,-17)"/>
<path style="fill:none;stroke-width:0.1;stroke-linecap:butt;stroke-linejoin:miter;stroke:rgb(0%,0%,0%);stroke-opacity:1;stroke-miterlimit:10;" d="M 31 1 L 36 1 L 36 6 L 31 6 Z M 31 1 " transform="matrix(20,0,0,20,-18,-17)"/>
<path style="fill:none;stroke-width:0.1;stroke-linecap:butt;stroke-linejoin:miter;stroke:rgb(0%,0%,0%);stroke-opacity:1;stroke-miterlimit:10;" d="M 36 1 L 41 1 L 41 6 L 36 6 Z M 36 1 " transform="matrix(20,0,0,20,-18,-17)"/>
<path style="fill:none;stroke-width:0.1;stroke-linecap:butt;stroke-linejoin:miter;stroke:rgb(0%,0%,0%);stroke-opacity:1;stroke-miterlimit:10;" d="M 41 1 L 46 1 L 46 6 L 41 6 Z M 41 1 " transform="matrix(20,0,0,20,-18,-17)"/>
<path style="fill:none;stroke-width:0.1;stroke-linecap:butt;stroke-linejoin:miter;stroke:rgb(0%,0%,0%);stroke-opacity:1;stroke-miterlimit:10;" d="M 31 6 L 36 6 L 36 11 L 31 11 Z M 31 6 " transform="matrix(20,0,0,20,-18,-17)"/>
<path style="fill:none;stroke-width:0.1;stroke-linecap:butt;stroke-linejoin:miter;stroke:rgb(0%,0%,0%);stroke-opacity:1;stroke-miterlimit:10;" d="M 36 6 L 41 6 L 41 11 L 36 11 Z M 36 6 " transform="matrix(20,0,0,20,-18,-17)"/>
<path style="fill:none;stroke-width:0.1;stroke-linecap:butt;stroke-linejoin:miter;stroke:rgb(0%,0%,0%);stroke-opacity:1;stroke-miterlimit:10;" d="M 41 6 L 46 6 L 46 11 L 41 11 Z M 41 6 " transform="matrix(20,0,0,20,-18,-17)"/>
<path style="fill:none;stroke-width:0.1;stroke-linecap:butt;stroke-linejoin:miter;stroke:rgb(0%,0%,0%);stroke-opacity:1;stroke-miterlimit:10;" d="M 31 11 L 36 11 L 36 16 L 31 16 Z M 31 11 " transform="matrix(20,0,0,20,-18,-17)"/>
<path style="fill:none;stroke-width:0.1;stroke-linecap:butt;stroke-linejoin:miter;stroke:rgb(0%,0%,0%);stroke-opacity:1;stroke-miterlimit:10;" d="M 36 11 L 41 11 L 41 16 L 36 16 Z M 36 11 " transform="matrix(20,0,0,20,-18,-17)"/>
<path style="fill:none;stroke-width:0.1;stroke-linecap:butt;stroke-linejoin:miter;stroke:rgb(0%,0%,0%);stroke-opacity:1;stroke-miterlimit:10;" d="M 41 11 L 46 11 L 46 16 L 41 16 Z M 41 11 " transform="matrix(20,0,0,20,-18,-17)"/>
<path style="fill:none;stroke-width:0.1;stroke-linecap:butt;stroke-linejoin:miter;stroke:rgb(0%,0%,0%);stroke-opacity:1;stroke-miterlimit:10;" d="M 31 16 L 36 16 L 36 21 L 31 21 Z M 31 16 " transform="matrix(20,0,0,20,-18,-17)"/>
<path style="fill:none;stroke-width:0.1;stroke-linecap:butt;stroke-linejoin:miter;stroke:rgb(0%,0%,0%);stroke-opacity:1;stroke-miterlimit:10;" d="M 36 16 L 41 16 L 41 21 L 36 21 Z M 36 16 " transform="matrix(20,0,0,20,-18,-17)"/>
<path style="fill:none;stroke-width:0.1;stroke-linecap:butt;stroke-linejoin:miter;stroke:rgb(0%,0%,0%);stroke-opacity:1;stroke-miterlimit:10;" d="M 41 16 L 46 16 L 46 21 L 41 21 Z M 41 16 " transform="matrix(20,0,0,20,-18,-17)"/>
<path style="fill:none;stroke-width:0.1;stroke-linecap:butt;stroke-linejoin:miter;stroke:rgb(0%,0%,0%);stroke-opacity:1;stroke-miterlimit:10;" d="M 31 21 L 36 21 L 36 26 L 31 26 Z M 31 21 " transform="matrix(20,0,0,20,-18,-17)"/>
<path style="fill:none;stroke-width:0.1;stroke-linecap:butt;stroke-linejoin:miter;stroke:rgb(0%,0%,0%);stroke-opacity:1;stroke-miterlimit:10;" d="M 36 21 L 41 21 L 41 26 L 36 26 Z M 36 21 " transform="matrix(20,0,0,20,-18,-17)"/>
<path style="fill:none;stroke-width:0.1;stroke-linecap:butt;stroke-linejoin:miter;stroke:rgb(0%,0%,0%);stroke-opacity:1;stroke-miterlimit:10;" d="M 41 21 L 46 21 L 46 26 L 41 26 Z M 41 21 " transform="matrix(20,0,0,20,-18,-17)"/>
<path style="fill:none;stroke-width:0.1;stroke-linecap:butt;stroke-linejoin:miter;stroke:rgb(0%,0%,0%);stroke-opacity:1;stroke-miterlimit:10;" d="M 46 1 L 51 1 L 51 6 L 46 6 Z M 46 1 " transform="matrix(20,0,0,20,-18,-17)"/>
<path style="fill:none;stroke-width:0.1;stroke-linecap:butt;stroke-linejoin:miter;stroke:rgb(0%,0%,0%);stroke-opacity:1;stroke-miterlimit:10;" d="M 46 6 L 51 6 L 51 11 L 46 11 Z M 46 6 " transform="matrix(20,0,0,20,-18,-17)"/>
<path style="fill:none;stroke-width:0.1;stroke-linecap:butt;stroke-linejoin:miter;stroke:rgb(0%,0%,0%);stroke-opacity:1;stroke-miterlimit:10;" d="M 46 11 L 51 11 L 51 16 L 46 16 Z M 46 11 " transform="matrix(20,0,0,20,-18,-17)"/>
<path style="fill:none;stroke-width:0.1;stroke-linecap:butt;stroke-linejoin:miter;stroke:rgb(0%,0%,0%);stroke-opacity:1;stroke-miterlimit:10;" d="M 46 16 L 51 16 L 51 21 L 46 21 Z M 46 16 " transform="matrix(20,0,0,20,-18,-17)"/>
<path style="fill:none;stroke-width:0.1;stroke-linecap:butt;stroke-linejoin:miter;stroke:rgb(0%,0%,0%);stroke-opacity:1;stroke-miterlimit:10;" d="M 46 21 L 51 21 L 51 26 L 46 26 Z M 46 21 " transform="matrix(20,0,0,20,-18,-17)"/>
<path style="fill:none;stroke-width:0.1;stroke-linecap:butt;stroke-linejoin:miter;stroke:rgb(0%,0%,0%);stroke-opacity:1;stroke-miterlimit:10;" d="M 1 1 L 6 1 L 6 6 L 1 6 Z M 1 1 " transform="matrix(20,0,0,20,-18,-17)"/>
<path style="fill:none;stroke-width:0.1;stroke-linecap:butt;stroke-linejoin:miter;stroke:rgb(0%,0%,0%);stroke-opacity:1;stroke-miterlimit:10;" d="M 6 1 L 11 1 L 11 6 L 6 6 Z M 6 1 " transform="matrix(20,0,0,20,-18,-17)"/>
<path style="fill:none;stroke-width:0.1;stroke-linecap:butt;stroke-linejoin:miter;stroke:rgb(0%,0%,0%);stroke-opacity:1;stroke-miterlimit:10;" d="M 1 6 L 6 6 L 6 11 L 1 11 Z M 1 6 " transform="matrix(20,0,0,20,-18,-17)"/>
<path style="fill:none;stroke-width:0.1;stroke-linecap:butt;stroke-linejoin:miter;stroke:rgb(0%,0%,0%);stroke-opacity:1;stroke-miterlimit:10;" d="M 6 6 L 11 6 L 11 11 L 6 11 Z M 6 6 " transform="matrix(20,0,0,20,-18,-17)"/>
<path style="fill:none;stroke-width:0.2;stroke-linecap:butt;stroke-linejoin:miter;stroke:rgb(100%,0%,0%);stroke-opacity:1;stroke-miterlimit:10;" d="M 16 26 L 16 1 " transform="matrix(20,0,0,20,-18,-17)"/>
<path style="fill:none;stroke-width:0.1;stroke-linecap:butt;stroke-linejoin:miter;stroke:rgb(0%,0%,100%);stroke-opacity:1;stroke-miterlimit:10;" d="M 6 6 L 26 21 " transform="matrix(20,0,0,20,-18,-17)"/>
<path style="fill-rule:evenodd;fill:rgb(0%,0%,100%);fill-opacity:1;stroke-width:0.1;stroke-linecap:butt;stroke-linejoin:miter;stroke:rgb(0%,0%,100%);stroke-opacity:1;stroke-miterlimit:10;" d="M 6 6 C 6.075 5.9 6.25 5.875 6.35 5.95 C 6.45 6.025 6.475 6.2 6.4 6.3 C 6.325 6.4 6.15 6.425 6.05 6.35 C 5.95 6.275 5.925 6.1 6 6 Z M 6 6 " transform="matrix(20,0,0,20,-18,-17)"/>
<path style="fill:none;stroke-width:0.1;stroke-linecap:butt;stroke-linejoin:miter;stroke:rgb(0%,0%,100%);stroke-opacity:1;stroke-miterlimit:10;" d="M 6 11 L 11 21 " transform="matrix(20,0,0,20,-18,-17)"/>
<path style="fill:none;stroke-width:0.1;stroke-linecap:butt;stroke-linejoin:miter;stroke:rgb(0%,0%,100%);stroke-opacity:1;stroke-miterlimit:10;" d="M 16 21 L 31 11 " transform="matrix(20,0,0,20,-18,-17)"/>
<path style="fill-rule:evenodd;fill:rgb(0%,0%,100%);fill-opacity:1;stroke-width:0.1;stroke-linecap:butt;stroke-linejoin:miter;stroke:rgb(0%,0%,100%);stroke-opacity:1;stroke-miterlimit:10;" d="M 16 21 C 15.930664 20.895898 15.965234 20.722656 16.069336 20.65332 C 16.173437 20.583984 16.34668 20.618555 16.416016 20.722656 C 16.485352 20.826562 16.450781 21 16.34668 21.069336 C 16.242773 21.138672 16.069336 21.104102 16 21 Z M 16 21 " transform="matrix(20,0,0,20,-18,-17)"/>
<path style="fill:none;stroke-width:0.1;stroke-linecap:butt;stroke-linejoin:miter;stroke:rgb(0%,0%,100%);stroke-opacity:1;stroke-miterlimit:10;" d="M 36 6 L 46 11 " transform="matrix(20,0,0,20,-18,-17)"/>
<path style="fill:none;stroke-width:0.1;stroke-linecap:butt;stroke-linejoin:miter;stroke:rgb(0%,0%,100%);stroke-opacity:1;stroke-miterlimit:10;" d="M 46 6 L 36 11 " transform="matrix(20,0,0,20,-18,-17)"/>
<path style="fill:none;stroke-width:0.1;stroke-linecap:butt;stroke-linejoin:miter;stroke:rgb(100%,0%,0%);stroke-opacity:1;stroke-miterlimit:10;" d="M 21.95 17.474805 C 21.95 17.889062 21.636523 18.224805 21.25 18.224805 C 20.863477 18.224805 20.55 17.889062 20.55 17.474805 C 20.55 17.060742 20.863477 16.724805 21.25 16.724805 C 21.636523 16.724805 21.95 17.060742 21.95 17.474805 " transform="matrix(20,0,0,20,-18,-17)"/>
</g>
</svg>
